<svg width="414" height="414" viewBox="0 0 414 414" fill="none" xmlns="http://www.w3.org/2000/svg">
<g clip-path="url(#clip0)">
<rect width="414" height="414" fill="white"/>
<g opacity="0.4">
<path d="M293.111 193.218C277.033 193.218 264 180.185 264 164.111C264 148.03 277.033 135 293.111 135C309.188 135 322.221 148.03 322.221 164.111C322.221 180.185 309.188 193.218 293.111 193.218ZM301.246 143.501C300.778 143.501 300.341 143.566 299.951 143.691C297.121 144.61 297.775 148.583 299.294 153.254C300.649 157.433 302.232 160.752 304.575 160.752C304.853 160.752 305.141 160.704 305.439 160.609C308.269 159.691 311.056 154.599 309.541 149.928C308.232 145.905 304.158 143.501 301.246 143.501" fill="#38E6A7"/>
</g>
<g opacity="0.4">
<path d="M69.1107 357.218C53.0334 357.218 40 344.185 40 328.111C40 312.03 53.0334 299 69.1107 299C85.188 299 98.2214 312.03 98.2214 328.111C98.2214 344.185 85.188 357.218 69.1107 357.218ZM77.246 307.501C76.7782 307.501 76.3409 307.566 75.9511 307.691C73.1207 308.61 73.7749 312.583 75.2935 317.254C76.6494 321.433 78.2324 324.752 80.5746 324.752C80.8526 324.752 81.1407 324.704 81.439 324.609C84.2694 323.691 87.0557 318.599 85.5406 313.928C84.2321 309.905 80.1577 307.501 77.246 307.501" fill="#38E6A7"/>
</g>
<g opacity="0.4">
<path d="M301.111 76.218C285.033 76.218 272 63.1846 272 47.1107C272 31.03 285.033 18 301.111 18C317.188 18 330.221 31.03 330.221 47.1107C330.221 63.1846 317.188 76.218 301.111 76.218ZM309.246 26.5014C308.778 26.5014 308.341 26.5658 307.951 26.6912C305.121 27.6098 305.775 31.5825 307.294 36.2535C308.649 40.433 310.232 43.7515 312.575 43.7515C312.853 43.7515 313.141 43.7041 313.439 43.6091C316.269 42.6905 319.056 37.5992 317.541 32.9282C316.232 28.9047 312.158 26.5014 309.246 26.5014" fill="#38E6A7"/>
</g>
<g opacity="0.4">
<path d="M406.111 373.218C390.033 373.218 377 360.185 377 344.111C377 328.03 390.033 315 406.111 315C422.188 315 435.221 328.03 435.221 344.111C435.221 360.185 422.188 373.218 406.111 373.218ZM414.246 323.501C413.778 323.501 413.341 323.566 412.951 323.691C410.121 324.61 410.775 328.583 412.294 333.254C413.649 337.433 415.232 340.752 417.575 340.752C417.853 340.752 418.141 340.704 418.439 340.609C421.269 339.691 424.056 334.599 422.541 329.928C421.232 325.905 417.158 323.501 414.246 323.501" fill="#38E6A7"/>
</g>
<g opacity="0.4">
<path d="M127.111 213.218C111.033 213.218 98 200.185 98 184.111C98 168.03 111.033 155 127.111 155C143.188 155 156.221 168.03 156.221 184.111C156.221 200.185 143.188 213.218 127.111 213.218ZM135.246 163.501C134.778 163.501 134.341 163.566 133.951 163.691C131.121 164.61 131.775 168.583 133.294 173.254C134.649 177.433 136.232 180.752 138.575 180.752C138.853 180.752 139.141 180.704 139.439 180.609C142.269 179.691 145.056 174.599 143.541 169.928C142.232 165.905 138.158 163.501 135.246 163.501" fill="#38E6A7"/>
</g>
<path opacity="0.4" d="M2.94093 52.444C-16.082 52.444 -31.556 67.9214 -31.556 86.9409C-31.556 105.967 -16.082 121.441 2.94093 121.441C21.9639 121.441 37.4413 105.967 37.4413 86.9409C37.4413 67.9214 21.9639 52.444 2.94093 52.444ZM2.94093 122.885C-16.8752 122.885 -33 106.76 -33 86.9409C-33 67.1248 -16.8752 51 2.94093 51C22.7605 51 38.8819 67.1248 38.8819 86.9409C38.8819 106.76 22.7605 122.885 2.94093 122.885Z" fill="white"/>
<g opacity="0.4">
<path d="M5.84604 113.147C-10.2313 113.147 -23.2646 100.113 -23.2646 84.0394C-23.2646 67.9587 -10.2313 54.9287 5.84604 54.9287C21.9234 54.9287 34.9567 67.9587 34.9567 84.0394C34.9567 100.113 21.9234 113.147 5.84604 113.147ZM13.9813 63.4301C13.5135 63.4301 13.0763 63.4945 12.6864 63.6199C9.85605 64.5385 10.5103 68.5112 12.0289 73.1822C13.3847 77.3617 14.9677 80.6802 17.31 80.6802C17.588 80.6802 17.8761 80.6328 18.1744 80.5379C21.0048 79.6193 23.7911 74.5279 22.2759 69.8569C20.9675 65.8334 16.8931 63.4301 13.9813 63.4301" fill="#38E6A7"/>
</g>
</g>
<defs>
<clipPath id="clip0">
<rect width="414" height="414" fill="white"/>
</clipPath>
</defs>
</svg>
