<svg width="90" height="90" viewBox="0 0 90 90" fill="none" xmlns="http://www.w3.org/2000/svg">
<path d="M44.3499 0.167833C43.9456 0.361176 43.5941 1.24001 43.5941 2.01338C43.5941 2.66372 42.9789 4.10501 42.3813 4.8608C41.4849 5.98571 39.5515 6.98758 38.2684 6.98758C37.0732 6.98758 36.4052 7.86641 36.8271 8.86828C37.0732 9.44831 37.2313 9.5362 38.5848 9.71196C41.2213 10.0635 43.2074 12.0321 43.5941 14.7037C43.6644 15.2662 43.8226 15.899 43.9281 16.1099C44.1566 16.5317 44.8069 16.7426 45.4397 16.5844C45.9845 16.4438 46.2306 15.9868 46.4064 14.7037C46.7931 12.0321 48.7792 10.0635 51.4157 9.71196C52.7691 9.5362 52.9273 9.44831 53.1734 8.86828C53.5952 7.86641 52.9273 6.98758 51.7321 6.98758C50.449 6.98758 48.5156 5.98571 47.6192 4.8608C47.0216 4.10501 46.4064 2.66372 46.4064 2.01338C46.4064 0.449059 45.4748 -0.377044 44.3499 0.167833ZM46.1603 7.11062L47.3731 8.30583L46.1954 9.48347L45.0002 10.6611L43.8226 9.48347L42.6274 8.30583L43.7699 7.14577C44.4026 6.49543 44.9299 5.96813 44.9299 5.95056C44.9475 5.95056 45.4924 6.46028 46.1603 7.11062Z" fill="#FFB13C"/>
<path d="M6.40164 18.43C5.94464 18.6585 5.62826 19.2912 5.62826 19.9591C5.62826 20.7501 4.83731 22.1738 4.04636 22.8593C3.29057 23.492 2.42931 23.8612 1.62078 23.8612C1.07591 23.8612 0.249802 24.3006 0.109189 24.6521C-0.277498 25.654 0.372839 26.3746 1.90201 26.6383C3.9409 26.9898 5.27673 28.3784 5.61069 30.5051C5.78645 31.63 6.19072 32.1222 6.94651 32.1222C7.61443 32.1222 8.26476 31.507 8.26476 30.8742C8.26476 28.7826 10.0049 26.9019 12.2195 26.5855C13.2565 26.4274 13.8893 25.9352 13.8893 25.2497C13.8893 24.4763 13.3972 24.0545 12.2722 23.8612C9.98728 23.5096 8.56357 22.1035 8.31749 19.9767C8.26476 19.4846 8.089 18.9397 7.93081 18.7639C7.57927 18.3421 6.87621 18.2015 6.40164 18.43ZM7.71989 25.9528L6.98167 26.691L6.22587 25.9528L5.47007 25.2146L6.20829 24.4588L6.94651 23.7205L7.70231 24.4588L8.45811 25.197L7.71989 25.9528Z" fill="#FFB13C"/>
<path d="M82.4907 18.4124C81.9985 18.6057 81.8052 18.9924 81.6822 20.047C81.4009 22.1211 79.9772 23.5096 77.7274 23.8612C76.6025 24.0545 76.1104 24.4763 76.1104 25.2497C76.1104 25.9352 76.7431 26.4274 77.7801 26.5855C79.9245 26.8843 81.4009 28.3608 81.6646 30.4876C81.8052 31.5422 82.2973 32.1222 83.0531 32.1222C83.8089 32.1222 84.2132 31.63 84.389 30.5051C84.7229 28.3784 86.0587 26.9898 88.0976 26.6383C89.6268 26.3746 90.2771 25.654 89.8905 24.6521C89.7498 24.3006 88.9237 23.8612 88.3789 23.8612C87.5703 23.8612 86.7091 23.492 85.9533 22.8593C85.1623 22.1738 84.3714 20.7501 84.3714 19.9591C84.3714 19.2736 84.0374 18.6585 83.5453 18.43C83.0531 18.2015 83.018 18.2015 82.4907 18.4124ZM83.7738 25.9352L83.0356 26.691L82.2798 25.9528L81.5415 25.2146L82.2798 24.4588L83.018 23.703L83.7738 24.4412L84.512 25.1794L83.7738 25.9352Z" fill="#FFB13C"/>
<path d="M23.5743 24.0545C21.5355 24.406 19.5141 25.9879 18.6002 27.9389C18.3717 28.4487 16.7546 32.8956 15.0321 37.7994C13.3096 42.7033 11.8331 46.6581 11.7804 46.5878C11.7101 46.5175 11.5168 45.8847 11.3586 45.2168C10.7258 42.633 10.7434 42.6506 10.1106 42.387C9.3724 42.0882 3.00964 42.0354 2.16596 42.3167C1.86716 42.4221 1.55078 42.7033 1.42774 42.9494C1.14652 43.5997 1.18167 49.5231 1.48047 49.9098C1.90231 50.4722 2.62296 50.5777 6.17344 50.5777C8.0893 50.5777 9.6712 50.6304 9.6712 50.6831C9.6712 50.7359 8.70448 52.142 7.50927 53.7942C6.33163 55.464 5.18915 57.0986 4.97823 57.4502C4.0994 58.8739 4.04667 59.4891 4.04667 69.1211C4.04667 74.3941 4.13455 78.4016 4.22243 78.841C4.50366 80.0362 5.08369 81.1259 5.99768 82.1102L6.82378 83.0242L6.89409 85.5904C6.94682 88.3851 7.0347 88.6663 8.15961 89.4924C8.6166 89.844 8.9154 89.8615 13.5732 89.9143C18.231 89.967 18.5298 89.9494 19.2329 89.5979C20.4105 89.0354 20.7445 88.2621 20.7445 86.1001V84.3249H44.8245H68.9046V86.1001C68.9046 88.2621 69.2385 89.0354 70.4162 89.5979C71.1192 89.9494 71.418 89.967 76.0759 89.9143C80.7337 89.8615 81.0325 89.844 81.4895 89.4924C82.6144 88.6663 82.7023 88.3851 82.755 85.5904L82.8253 83.0242L83.6514 82.1102C84.5654 81.1259 85.1454 80.0362 85.4266 78.841C85.6551 77.8039 85.6551 60.403 85.4091 59.366C85.1278 58.1357 84.583 57.2041 82.2101 53.8821C80.9798 52.1772 79.9779 50.7359 79.9779 50.6831C79.9779 50.6304 81.5422 50.5777 83.4756 50.5777C87.2195 50.5777 87.905 50.4546 88.2213 49.7692C88.485 49.1716 88.485 43.547 88.2213 42.9494C88.0983 42.7033 87.7819 42.4221 87.4831 42.3167C86.6394 42.0354 80.2767 42.0882 79.5385 42.387C78.9057 42.6506 78.9233 42.633 78.2905 45.2168C78.1323 45.8847 77.939 46.5175 77.8687 46.5878C77.816 46.6581 76.3395 42.7033 74.617 37.7994C72.8945 32.8956 71.2774 28.4487 71.0489 27.9389C70.0998 25.9 68.1136 24.406 65.9165 24.0545C64.4928 23.826 24.9629 23.826 23.5743 24.0545ZM65.7408 26.691C66.7778 26.9195 67.7445 27.5698 68.2894 28.3959C68.6937 28.9935 75.2322 47.203 75.2322 47.7127C75.2322 47.8885 74.3885 47.9412 71.0138 47.9412C67.0239 47.9412 66.7778 47.9588 66.4438 48.2927C66.0572 48.6794 65.9869 49.3473 66.2681 49.8746C66.5845 50.4722 67.4106 50.5777 72.0684 50.5777H76.6032L79.433 54.5324C80.9798 56.7119 82.4035 58.7508 82.5617 59.0672C82.8429 59.5769 82.878 60.3855 82.9308 67.838L82.9835 76.0639H70.9259H58.8859V71.1775C58.8859 68.5059 58.8156 65.8167 58.7277 65.2191C58.3234 62.4771 56.4251 60.2273 53.8589 59.4539C52.5934 59.0672 37.0557 59.0672 35.7901 59.4539C33.2239 60.2273 31.3257 62.4771 30.9214 65.2191C30.8335 65.8167 30.7632 68.5059 30.7632 71.1775V76.0639H18.7232H6.66559L6.71832 67.838C6.77105 60.3855 6.8062 59.5769 7.08743 59.0672C7.24562 58.7508 8.66933 56.7119 10.2161 54.5324L13.0459 50.5777L37.6357 50.5425L62.2079 50.4898L62.5946 50.1031C63.0691 49.6285 63.1043 48.7849 62.6649 48.2927C62.3485 47.9412 62.1727 47.9412 38.3739 47.9412C18.6177 47.9412 14.4169 47.906 14.4169 47.7127C14.4169 47.2733 20.9203 29.0814 21.2894 28.4838C21.7991 27.6753 22.7131 27.0074 23.6974 26.7437C24.7696 26.4625 64.4928 26.4098 65.7408 26.691ZM8.93298 46.3593C9.12632 47.1151 9.23178 47.8006 9.17905 47.8533C9.12632 47.906 7.91353 47.9412 6.47225 47.9412H3.8709V46.4472V44.9532H6.22617H8.58145L8.93298 46.3593ZM85.743 46.3944L85.6903 47.8533L83.2296 47.906C81.8937 47.9236 80.6985 47.9236 80.5755 47.8709C80.4173 47.8181 80.4525 47.4315 80.7161 46.3769L81.0676 44.9532H83.4405H85.7958L85.743 46.3944ZM53.8062 62.3013C54.7378 62.7935 55.8978 64.0414 55.8978 64.5687C55.8978 64.7796 54.2808 64.8148 44.8245 64.8148C35.3683 64.8148 33.7512 64.7796 33.7512 64.5687C33.7512 64.0414 34.9113 62.7935 35.8429 62.3013L36.8096 61.8268H44.8245H52.8395L53.8062 62.3013ZM56.2142 68.8926L56.1615 70.3514H44.8245H33.4876L33.4349 68.8926L33.3821 67.4513H44.8245H56.267L56.2142 68.8926ZM56.2494 74.5698V76.0639H44.8245H33.3997V74.5698V73.0758H44.8245H56.2494V74.5698ZM82.6144 78.9464C82.6144 79.4386 81.4543 80.7041 80.5931 81.1435L79.7318 81.6005H44.8245H9.91728L9.05602 81.1435C8.19476 80.7041 7.0347 79.4386 7.0347 78.9464C7.0347 78.7355 12.2725 78.7004 44.8245 78.7004C77.3765 78.7004 82.6144 78.7355 82.6144 78.9464ZM18.108 85.8189V87.3129H13.8017H9.49544V85.8189V84.3249H13.8017H18.108V85.8189ZM80.1536 85.8189V87.3129H75.8474H71.5411V85.8189V84.3249H75.8474H80.1536V85.8189Z" fill="#0E7651"/>
<path d="M24.0131 28.3432C22.7124 28.8002 22.6421 28.9583 19.7595 37.1139C18.2655 41.3323 17.0527 44.9004 17.0527 45.041C17.0527 45.164 17.2461 45.5156 17.4746 45.7792L17.8964 46.2714H44.8239H71.7513L72.1732 45.7792C72.4017 45.5156 72.595 45.164 72.595 45.041C72.595 44.9004 71.3822 41.3323 69.8882 37.0963C66.9353 28.7298 66.9002 28.6771 65.4413 28.2729C64.9843 28.1498 58.2876 28.0795 44.736 28.0795C28.0557 28.0971 24.5755 28.1322 24.0131 28.3432ZM64.8613 30.7687C64.8613 30.7863 65.8456 33.6162 67.0584 37.026C68.2711 40.4535 69.2554 43.3185 69.2554 43.3888C69.2554 43.4767 58.5512 43.547 44.8239 43.547C31.0965 43.547 20.3923 43.4767 20.3923 43.3888C20.3923 43.3185 21.3766 40.4535 22.5894 37.026C23.8022 33.6162 24.7865 30.7863 24.7865 30.7687C24.7865 30.7336 33.8033 30.716 44.8239 30.716C55.8444 30.716 64.8613 30.7336 64.8613 30.7687Z" fill="#0E7651"/>
<circle cx="17.6686" cy="67.5391" r="4.77898" fill="#FFB13C" stroke="#0E7651" stroke-width="2"/>
<circle cx="72.3317" cy="67.5391" r="4.77898" fill="#FFB13C" stroke="#0E7651" stroke-width="2"/>
</svg>
