<svg width="91" height="93" viewBox="0 0 91 93" fill="none" xmlns="http://www.w3.org/2000/svg">
<path d="M21 52L38 35H72L89 54" stroke="#0E7651" stroke-width="3"/>
<path d="M49 35V51.5" stroke="#0E7651" stroke-width="3"/>
<path d="M66 35V53" stroke="#0E7651" stroke-width="3"/>
<path d="M80.5 52V69L80.8292 69.6584C81.2403 70.4806 82.0807 71 83 71V71H89" stroke="#0E7651" stroke-width="3"/>
<path d="M2 64H10L11 65.5L12 67.5L10 71H3.5" stroke="#0E7651" stroke-width="3"/>
<path fill-rule="evenodd" clip-rule="evenodd" d="M41 14C41 10.287 42.475 6.72601 45.1005 4.1005C47.726 1.475 51.287 0 55 0C58.713 0 62.274 1.475 64.8995 4.1005C67.525 6.72601 69 10.287 69 14C69 17.713 67.525 21.274 64.8995 23.8995C62.274 26.525 58.713 28 55 28C51.287 28 47.726 26.525 45.1005 23.8995C42.475 21.274 41 17.713 41 14V14ZM54.2011 19.992L62.2613 9.91573L60.8053 8.75093L53.9323 17.3395L49.064 13.2832L47.8693 14.7168L54.2011 19.9939V19.992Z" fill="#FFB13C"/>
<path d="M2 61.0001V80.0001C2.61834 81.5707 3.34931 81.9056 5 82.0001H13.5C14.6462 72.92 21.5 71.0001 24 71.0001C26.5 71.0001 33.7399 73.249 35 82.0001H57C58 73.0001 64.5 71.0001 67.5 71.0001C70.5 71.0001 76.5 72.0001 77.5 82.0001H86C86 82.0001 87.5 81.5001 88 81.0001C88.5 80.5001 89 79.0001 89 79.0001C89 79.0001 89.5 53.5001 89 53.0001C88.5 52.5001 19.5 53.0001 19.5 53.0001C9.67278 53.5338 5.87578 55.2269 2 61.0001Z" stroke="#0E7651" stroke-width="3"/>
<path d="M13 81C15.0102 87.9693 18.4496 91 24 91C29.5504 91 32.6477 88.4595 35 81" stroke="#0E7651" stroke-width="3"/>
<path d="M57 82C58.9189 88.2724 62.2019 91 67.5 91C72.7981 91 75.7547 88.7135 78 82" stroke="#0E7651" stroke-width="3"/>
<circle cx="24" cy="81" r="5" fill="#FFB13D"/>
<circle cx="68" cy="81" r="5" fill="#FFB13C"/>
<rect x="37" y="60" width="8" height="4" rx="2" fill="#0E7651"/>
<rect x="82" y="60" width="6" height="4" fill="#0E7651"/>
</svg>
