<svg width="92" height="98" viewBox="0 0 92 98" fill="none" xmlns="http://www.w3.org/2000/svg">
<path d="M21.2055 23.2112C20.2192 23.5635 19.1448 24.3384 18.5988 25.0781C18.3346 25.448 15.7456 31.2954 12.8572 38.0586L7.60862 50.3697L6.79845 50.7924C4.57927 51.9548 2.36009 54.3149 1.23289 56.675C-0.0175994 59.2817 1.32201e-05 59.1584 1.32201e-05 69.5321V78.8668L0.598839 79.9764C1.69082 81.9842 3.15265 82.8472 5.75931 82.9705L7.46772 83.0586L7.52056 88.5361C7.5734 93.8903 7.59101 94.0312 7.9961 94.8061C8.5597 95.8805 9.51077 96.8492 10.5675 97.4128L11.4482 97.8883H16.82H22.1918L23.09 97.4128C24.2348 96.8139 25.4501 95.4578 25.8552 94.3482C26.1194 93.5909 26.1546 92.7983 26.1546 88.2366V83.0057H44.9824H63.8278L63.8806 88.5008C63.9335 93.8903 63.9335 94.0312 64.3562 94.8061C64.9198 95.8805 65.8708 96.8492 66.9276 97.4128L67.8082 97.8883H73.18H78.5519L79.4501 97.4128C80.5949 96.8139 81.8102 95.4578 82.2153 94.3482C82.4795 93.5909 82.5147 92.7983 82.5147 88.2719V83.0586L84.2407 82.9705C85.6321 82.9 86.1252 82.7944 86.865 82.4245C88.0274 81.8257 88.8904 80.9627 89.5245 79.7826L90 78.8668V69.5321C90 61.0429 89.9648 60.0918 89.683 59.0527C88.6967 55.5478 86.2133 52.3952 83.184 50.7924L82.3914 50.3697L77.0724 37.8824C71.9472 25.9059 71.7006 25.3599 70.8728 24.5321C70.3268 23.9862 69.6751 23.5458 69.0411 23.3169C68.0548 22.947 67.9667 22.947 44.9472 22.9646C26.137 22.9646 21.7163 23.0175 21.2055 23.2112ZM68.0372 27.086C68.4775 27.4558 69.4462 29.5869 73.092 38.129C75.593 43.9588 77.6712 48.8374 77.7065 48.9607C77.7769 49.1545 71.6301 49.1897 45.0176 49.1897C26.9824 49.1897 12.2407 49.1721 12.2407 49.1368C12.2407 49.1016 14.3014 44.2582 16.82 38.3404C20.4129 29.904 21.5049 27.5087 21.9276 27.1212L22.456 26.6457H44.9824H67.5088L68.0372 27.086ZM79.6967 53.3638C82.6027 54.3502 84.9452 56.6926 85.8963 59.5635C86.2661 60.673 86.2838 61.0605 86.3542 69.1271C86.407 76.6652 86.3894 77.5811 86.1252 78.1447C85.5264 79.4128 89.0665 79.3071 45 79.3071C0.951089 79.3071 4.47359 79.4128 3.87477 78.1447C3.62819 77.5987 3.59297 76.63 3.6458 69.1271C3.71626 61.6241 3.75148 60.6202 4.03328 59.7572C5.23093 56.0938 8.18983 53.5576 11.8004 53.0644C12.3816 52.994 27.6341 52.9411 45.7045 52.9588L78.5519 52.9764L79.6967 53.3638ZM22.4208 88.1134L22.3679 93.221L21.8748 93.6965L21.3992 94.1897H16.82H12.2407L11.7652 93.6965L11.272 93.221L11.2192 88.1134L11.1664 83.0057H16.82H22.4736L22.4208 88.1134ZM78.7808 88.1134L78.728 93.221L78.2348 93.6965L77.7593 94.1897H73.1624H68.5656L68.0548 93.6085L67.544 93.0449V88.0253V83.0057H73.18H78.8337L78.7808 88.1134Z" fill="#0E7651"/>
<path d="M14.2657 57.0977C11.9056 57.767 9.68644 59.5283 8.59446 61.6242C5.24808 67.9294 9.73928 75.4324 16.8547 75.4324C22.0152 75.4324 26.1541 71.2758 26.1541 66.0977C26.1541 61.8531 23.2657 58.1017 19.1972 57.0273C17.841 56.675 15.6042 56.7103 14.2657 57.0977ZM19.479 61.1838C20.659 61.8179 21.205 62.3815 21.8919 63.7024C22.2794 64.4598 22.3498 64.8296 22.3498 66.0977C22.3498 67.3835 22.2794 67.7181 21.8743 68.5107C21.6101 69.0214 21.117 69.7083 20.7823 70.0606C20.4301 70.3952 19.7432 70.8883 19.2324 71.1525C18.4399 71.5576 18.1052 71.6281 16.8195 71.6281C15.5514 71.6281 15.1815 71.5576 14.4242 71.1701C13.1033 70.4656 12.5397 69.9373 11.8704 68.7044C11.3244 67.6829 11.2716 67.4715 11.2892 66.0977C11.2892 64.8296 11.3596 64.4598 11.7471 63.7024C12.4164 62.4167 12.9624 61.8355 14.0191 61.2543C15.2696 60.585 15.8156 60.4617 17.2246 60.5498C18.1228 60.6026 18.6512 60.7435 19.479 61.1838Z" fill="#0E7651"/>
<path d="M70.626 57.0977C68.266 57.767 66.0468 59.5283 64.9548 61.6242C61.6084 67.9294 66.0996 75.4324 73.2151 75.4324C78.3756 75.4324 82.5145 71.2758 82.5145 66.0977C82.5145 61.8531 79.626 58.1017 75.5576 57.0273C74.2014 56.675 71.9646 56.7103 70.626 57.0977ZM75.8394 61.1838C77.0194 61.8179 77.5654 62.3815 78.2523 63.7024C78.6397 64.4598 78.7102 64.8296 78.7102 66.0977C78.7102 67.3835 78.6397 67.7181 78.2347 68.5107C77.6358 69.6731 76.7552 70.5537 75.5928 71.1525C74.8002 71.5576 74.4656 71.6281 73.1799 71.6281C71.9118 71.6281 71.5419 71.5576 70.7846 71.1701C69.4636 70.4656 68.9 69.9373 68.2307 68.7044C67.6848 67.6829 67.6319 67.4715 67.6495 66.0977C67.6495 64.8296 67.72 64.4598 68.1075 63.7024C68.7767 62.4167 69.3227 61.8355 70.3795 61.2543C71.63 60.585 72.1759 60.4617 73.5849 60.5498C74.4832 60.6026 75.0116 60.7435 75.8394 61.1838Z" fill="#0E7651"/>
<path d="M30.9099 60.7611C30.2054 61.2366 30.0469 61.5536 30.0293 62.3638C30.0293 62.9802 30.135 63.2268 30.5401 63.6495L31.0508 64.1603H44.9999H58.9491L59.4598 63.6495C60.3052 62.7865 60.0586 61.1485 59.0019 60.673C58.6673 60.5145 55.1095 60.4616 44.9471 60.4616C32.407 60.4616 31.2974 60.4793 30.9099 60.7611Z" fill="#0E7651"/>
<path d="M30.5405 68.5458C29.6599 69.4441 29.9065 70.9587 31.0337 71.5399C31.5973 71.8217 58.3683 71.8217 59.0023 71.5223C60.0591 71.0468 60.3057 69.4088 59.4603 68.5458L58.9495 68.0351H45.0004H31.0513L30.5405 68.5458Z" fill="#0E7651"/>
<path d="M58.1036 10.3538L71.651 2.55187C72.2473 2.20845 72.9783 2.19571 73.5862 2.51812L88.3339 10.3397C88.9036 10.6419 89.2921 11.1956 89.3593 11.837C89.6276 14.3973 90.1653 21.2268 88.8548 25.6778C86.2087 34.6652 82.6984 39.8961 73.2591 43.7724C72.7487 43.982 72.1704 43.9606 71.6762 43.7152C63.1682 39.4917 59.7496 34.9228 57.292 26.4516C55.9074 21.6788 56.7773 14.317 57.1485 11.7455C57.2333 11.1582 57.5894 10.6499 58.1036 10.3538Z" fill="white" stroke="#0E7651" stroke-width="3"/>
<circle cx="16.6437" cy="66.1977" r="6.07632" fill="#FFB13C"/>
<circle cx="73.0041" cy="66.1977" r="6.07632" fill="#FFB13C"/>
<path d="M79.6082 16.5995C79.1716 16.2271 78.5118 16.2979 78.164 16.7543L71.9907 24.8557C71.6244 25.3364 70.9186 25.3848 70.4901 24.9586L67.5674 22.0514C67.1772 21.6633 66.5467 21.6634 66.1567 22.0517L65.5265 22.679C65.1338 23.0699 65.1338 23.7056 65.5265 24.0965L70.8391 29.3846C71.2641 29.8077 71.9633 29.7641 72.3325 29.2916L80.6041 18.7069C80.934 18.2848 80.8727 17.6778 80.4651 17.3303L79.6082 16.5995Z" fill="#FFB13C"/>
</svg>
