<svg width="90" height="89" viewBox="0 0 90 89" fill="none" xmlns="http://www.w3.org/2000/svg">
<path d="M72.0526 29.5624H67.8294C67.2696 29.5615 66.733 29.3388 66.3372 28.943C65.9414 28.5471 65.7186 28.0105 65.7178 27.4508V19.0044H67.8294V27.4508H72.0526V19.0044H74.1641V27.4508C74.1633 28.0105 73.9406 28.5471 73.5448 28.943C73.1489 29.3388 72.6123 29.5615 72.0526 29.5624Z" fill="#FFB13C"/>
<path d="M84.7218 19.0044H82.8741L80.4986 28.5393L78.1674 19.0044H76.2754L78.9149 29.5624H82.0823L84.7218 19.0044Z" fill="#FFB13C"/>
<path d="M74.165 0H76.2766V5.27898H74.165V0Z" fill="#FFB13C"/>
<path d="M81.2246 7.28483L84.9262 3.58215L86.4191 5.07611L82.7175 8.77773L81.2246 7.28483Z" fill="#FFB13C"/>
<path d="M84.7217 13.7253H90.0007V15.8369H84.7217V13.7253Z" fill="#FFB13C"/>
<path d="M60.4385 13.7253H65.7175V15.8369H60.4385V13.7253Z" fill="#FFB13C"/>
<path d="M64.0205 5.07611L65.5134 3.58215L69.215 7.28483L67.7221 8.77773L64.0205 5.07611Z" fill="#FFB13C"/>
<path d="M81.5543 15.837H79.4427V14.7812C79.4427 13.6611 78.9978 12.5869 78.2058 11.7949C77.4138 11.0029 76.3396 10.558 75.2195 10.558C74.0995 10.558 73.0253 11.0029 72.2333 11.7949C71.4413 12.5869 70.9964 13.6611 70.9964 14.7812V15.837H68.8848V14.7812C68.8848 13.1011 69.5522 11.4898 70.7402 10.3018C71.9282 9.11382 73.5395 8.44641 75.2195 8.44641C76.8996 8.44641 78.5109 9.11382 79.6989 10.3018C80.8869 11.4898 81.5543 13.1011 81.5543 14.7812V15.837Z" fill="#FFB13C"/>
<path d="M17.5564 26.7022C16.7398 26.9938 15.8503 27.6354 15.3983 28.2479C15.1795 28.5541 13.036 33.3952 10.6446 38.9946L6.2993 49.1872L5.62854 49.5371C3.79125 50.4995 1.95396 52.4535 1.02073 54.4074C-0.0145708 56.5655 1.09452e-05 56.4634 1.09452e-05 65.052V72.7803L0.495788 73.699C1.39985 75.3613 2.61013 76.0758 4.76822 76.1779L6.18265 76.2508L6.22639 80.7857C6.27014 85.2185 6.28472 85.3352 6.6201 85.9768C7.08671 86.8663 7.87412 87.6682 8.74902 88.1349L9.47811 88.5286H13.9255H18.3729L19.1166 88.1349C20.0644 87.6391 21.0706 86.5163 21.4059 85.5976C21.6247 84.9706 21.6538 84.3145 21.6538 80.5378V76.207H37.2416H52.8441L52.8878 80.7565C52.9315 85.2185 52.9315 85.3352 53.2815 85.9768C53.7481 86.8663 54.5355 87.6682 55.4104 88.1349L56.1395 88.5286H60.5869H65.0343L65.778 88.1349C66.7258 87.6391 67.732 86.5163 68.0673 85.5976C68.2861 84.9706 68.3152 84.3145 68.3152 80.567V76.2508L69.7442 76.1779C70.8962 76.1195 71.3045 76.0321 71.9169 75.7258C72.8793 75.2301 73.5938 74.5156 74.1187 73.5386L74.5124 72.7803V65.052C74.5124 58.0237 74.4833 57.2363 74.25 56.3759C73.4334 53.4742 71.3774 50.8641 68.8693 49.5371L68.2132 49.1872L63.8095 38.8488C59.5662 28.9332 59.3621 28.4812 58.6767 27.7958C58.2247 27.3438 57.6852 26.9793 57.1602 26.7897C56.3437 26.4835 56.2707 26.4835 37.2125 26.4981C21.6392 26.4981 17.9792 26.5418 17.5564 26.7022ZM56.3291 29.9102C56.6936 30.2164 57.4956 31.9808 60.514 39.0529C62.5846 43.8794 64.3053 47.9186 64.3344 48.0206C64.3928 48.181 59.3037 48.2102 37.2708 48.2102C22.3392 48.2102 10.1343 48.1956 10.1343 48.1665C10.1343 48.1373 11.8403 44.1273 13.9255 39.2279C16.9002 32.2432 17.8043 30.2601 18.1542 29.9393L18.5917 29.5456H37.2416H55.8916L56.3291 29.9102ZM65.9822 51.6661C68.3881 52.4826 70.3275 54.422 71.1149 56.7988C71.4211 57.7175 71.4357 58.0383 71.494 64.7167C71.5378 70.9576 71.5232 71.7159 71.3045 72.1825C70.8087 73.2324 73.7396 73.1449 37.2562 73.1449C0.787422 73.1449 3.70376 73.2324 3.20798 72.1825C3.00384 71.7305 2.97468 70.9285 3.01842 64.7167C3.07675 58.5049 3.10591 57.6737 3.33922 56.9592C4.33077 53.9262 6.7805 51.8265 9.76974 51.4182C10.2509 51.3598 22.8787 51.3161 37.8395 51.3307L65.0343 51.3453L65.9822 51.6661ZM18.5625 80.4357L18.5188 84.6644L18.1105 85.0581L17.7168 85.4664H13.9255H10.1343L9.74058 85.0581L9.33229 84.6644L9.28855 80.4357L9.2448 76.207H13.9255H18.6062L18.5625 80.4357ZM65.2239 80.4357L65.1802 84.6644L64.7719 85.0581L64.3782 85.4664H60.5723H56.7665L56.3437 84.9852L55.9208 84.5186V80.3628V76.207H60.5869H65.2677L65.2239 80.4357Z" fill="#0E7651"/>
<path d="M11.8104 54.7574C9.85644 55.3115 8.01915 56.7696 7.11508 58.5048C4.34456 63.7251 8.06289 69.9369 13.9539 69.9369C18.2263 69.9369 21.653 66.4956 21.653 62.2086C21.653 58.6944 19.2616 55.5885 15.8933 54.699C14.7705 54.4074 12.9186 54.4366 11.8104 54.7574ZM16.1266 58.1403C17.1035 58.6652 17.5556 59.1319 18.1243 60.2255C18.4451 60.8525 18.5034 61.1587 18.5034 62.2086C18.5034 63.2731 18.4451 63.5501 18.1097 64.2063C17.891 64.6292 17.4827 65.1978 17.2056 65.4895C16.914 65.7665 16.3453 66.1748 15.9224 66.3935C15.2662 66.7289 14.9892 66.7872 13.9247 66.7872C12.8749 66.7872 12.5686 66.7289 11.9416 66.4081C10.848 65.8249 10.3814 65.3874 9.82728 64.3667C9.37525 63.5209 9.3315 63.346 9.34608 62.2086C9.34608 61.1587 9.40441 60.8525 9.72521 60.2255C10.2793 59.161 10.7313 58.6798 11.6062 58.1986C12.6415 57.6445 13.0936 57.5425 14.2601 57.6154C15.0038 57.6591 15.4412 57.7758 16.1266 58.1403Z" fill="#0E7651"/>
<path d="M58.4725 54.7574C56.5186 55.3115 54.6813 56.7696 53.7772 58.5048C51.0067 63.7251 54.725 69.9369 60.616 69.9369C64.8884 69.9369 68.3151 66.4956 68.3151 62.2086C68.3151 58.6944 65.9237 55.5885 62.5554 54.699C61.4326 54.4074 59.5807 54.4366 58.4725 54.7574ZM62.7887 58.1403C63.7657 58.6652 64.2177 59.1319 64.7864 60.2255C65.1072 60.8525 65.1655 61.1587 65.1655 62.2086C65.1655 63.2731 65.1072 63.5501 64.7718 64.2063C64.276 65.1687 63.5469 65.8978 62.5845 66.3935C61.9284 66.7289 61.6513 66.7872 60.5868 66.7872C59.537 66.7872 59.2307 66.7289 58.6037 66.4081C57.5101 65.8249 57.0435 65.3874 56.4894 64.3667C56.0374 63.5209 55.9936 63.346 56.0082 62.2086C56.0082 61.1587 56.0665 60.8525 56.3873 60.2255C56.9414 59.161 57.3935 58.6798 58.2684 58.1986C59.3037 57.6445 59.7557 57.5425 60.9222 57.6154C61.6659 57.6591 62.1033 57.7758 62.7887 58.1403Z" fill="#0E7651"/>
<path d="M25.5904 57.7903C25.0071 58.1841 24.8759 58.4465 24.8613 59.1173C24.8613 59.6276 24.9488 59.8318 25.2842 60.1817L25.7071 60.6046H37.2558H48.8045L49.2273 60.1817C49.9272 59.4672 49.7231 58.1111 48.8482 57.7174C48.5712 57.5862 45.6257 57.5425 37.212 57.5425C26.8299 57.5425 25.9112 57.557 25.5904 57.7903Z" fill="#0E7651"/>
<path d="M25.2849 64.2355C24.5559 64.9792 24.76 66.2332 25.6932 66.7144C26.1598 66.9477 48.324 66.9477 48.849 66.6998C49.7239 66.3061 49.928 64.95 49.2281 64.2355L48.8052 63.8126H37.2565H25.7078L25.2849 64.2355Z" fill="#0E7651"/>
<circle cx="13.7797" cy="62.2914" r="5.03068" fill="#FFB13C"/>
<circle cx="60.4408" cy="62.2914" r="5.03068" fill="#FFB13C"/>
</svg>
