<svg width="91" height="92" viewBox="0 0 91 92" fill="none" xmlns="http://www.w3.org/2000/svg">
<path d="M68.4606 35.7069H63.3596C62.6835 35.7059 62.0353 35.4369 61.5572 34.9588C61.0791 34.4807 60.8101 33.8326 60.8091 33.1564V22.9545H63.3596V33.1564H68.4606V22.9545H71.0111V33.1564C71.01 33.8326 70.741 34.4807 70.2629 34.9588C69.7848 35.4369 69.1367 35.7059 68.4606 35.7069Z" fill="#FFB13C"/>
<path d="M83.7635 22.9545H81.5318L78.6625 34.4712L75.8468 22.9545H73.5615L76.7496 35.7069H80.5754L83.7635 22.9545Z" fill="#FFB13C"/>
<path d="M71.0127 0H73.5632V6.37623H71.0127V0Z" fill="#FFB13C"/>
<path d="M79.5391 8.79907L84.0101 4.32678L85.8133 6.13126L81.3423 10.6023L79.5391 8.79907Z" fill="#FFB13C"/>
<path d="M83.7632 16.5781H90.1394V19.1286H83.7632V16.5781Z" fill="#FFB13C"/>
<path d="M54.4326 16.5781H60.8088V19.1286H54.4326V16.5781Z" fill="#FFB13C"/>
<path d="M58.7593 6.13126L60.5625 4.32678L65.0335 8.79907L63.2303 10.6023L58.7593 6.13126Z" fill="#FFB13C"/>
<path d="M79.9377 19.1288H77.3872V17.8535C77.3872 16.5006 76.8498 15.2032 75.8932 14.2466C74.9366 13.2899 73.6391 12.7525 72.2862 12.7525C70.9334 12.7525 69.6359 13.2899 68.6793 14.2466C67.7227 15.2032 67.1853 16.5006 67.1853 17.8535V19.1288H64.6348V17.8535C64.6348 15.8242 65.4409 13.878 66.8758 12.4431C68.3108 11.0082 70.2569 10.202 72.2862 10.202C74.3155 10.202 76.2617 11.0082 77.6967 12.4431C79.1316 13.878 79.9377 15.8242 79.9377 17.8535V19.1288Z" fill="#FFB13C"/>
<path d="M14.2432 74.7162C17.2013 74.7162 19.5993 72.3182 19.5993 69.3602C19.5993 66.4021 17.2013 64.0042 14.2432 64.0042C11.2852 64.0042 8.88721 66.4021 8.88721 69.3602C8.88721 72.3182 11.2852 74.7162 14.2432 74.7162Z" fill="#FFB13C"/>
<path d="M53.5206 74.7162C56.4786 74.7162 58.8766 72.3182 58.8766 69.3602C58.8766 66.4021 56.4786 64.0042 53.5206 64.0042C50.5625 64.0042 48.1646 66.4021 48.1646 69.3602C48.1646 72.3182 50.5625 74.7162 53.5206 74.7162Z" fill="#FFB13C"/>
<path d="M3.17196 59.4964C3.17196 59.4964 10.115 39.5952 12.9228 37.4123C15.7307 35.2294 51.1019 35.5459 53.4661 37.9768C55.8303 40.4077 63.1692 59.2207 63.1692 59.2207" stroke="#0E7651" stroke-width="3"/>
<rect x="3.3335" y="79.5564" width="8.88705" height="12.2197" rx="2" fill="#0E7651"/>
<rect x="54.4331" y="79.5564" width="8.88705" height="12.2197" rx="2" fill="#0E7651"/>
<mask id="path-14-inside-1" fill="white">
<rect y="57.3389" width="66.6529" height="23.3285" rx="2"/>
</mask>
<rect y="57.3389" width="66.6529" height="23.3285" rx="2" stroke="#0E7651" stroke-width="6" mask="url(#path-14-inside-1)"/>
</svg>
