<svg width="53" height="54" viewBox="0 0 53 54" fill="none" xmlns="http://www.w3.org/2000/svg">
<path d="M24.838 0.0265798C17.4801 0.701138 10.9628 4.27111 6.57301 10.0308C5.65976 11.2346 5.03709 12.2309 4.22762 13.8083L3.48042 15.2612L3.07569 14.431C2.80586 13.8602 2.57755 13.5385 2.32848 13.3725C1.65392 12.9366 0.657652 13.1545 0.232161 13.8395C-0.182952 14.5036 -0.110307 14.8357 1.02088 17.5028C1.58128 18.8416 2.1313 20.0662 2.24546 20.2322C2.49453 20.6058 2.99266 20.8549 3.48042 20.8549C3.88516 20.8549 8.74198 18.9038 9.30238 18.5199C9.73825 18.2085 9.92505 17.7623 9.87316 17.1189C9.84203 16.7245 9.75901 16.4962 9.5722 16.299C8.97029 15.6556 8.40989 15.5933 7.29946 16.0499C6.88435 16.2264 6.52112 16.3405 6.50037 16.3198C6.41735 16.2367 7.59004 14.0366 8.22309 13.0923C9.15709 11.6809 10.06 10.612 11.3883 9.33549C18.3207 2.67293 28.6674 1.17852 37.1565 5.63061C42.4907 8.42224 46.5692 13.3828 48.2296 19.1114C48.3749 19.6095 48.5721 20.1388 48.6551 20.2737C49.0806 20.9068 50.0976 21.1247 50.7618 20.72C51.1043 20.5124 51.4986 19.8275 51.509 19.4331C51.509 19.1114 50.8863 17.1085 50.4193 15.9462C49.1117 12.6979 47.306 9.96854 44.7634 7.43635C40.8095 3.47202 36.0357 1.07474 30.442 0.223758C29.3939 0.0680911 25.8031 -0.0564428 24.838 0.0265798Z" fill="#01A164"/>
<path d="M17.9681 12.4489C17.0652 12.7602 16.1935 13.3621 15.6435 14.0574C15.4048 14.3688 14.4293 16.0915 13.4849 17.8972C12.0839 20.554 11.6791 21.2389 11.3886 21.4465C10.8697 21.8201 10.1536 22.8059 9.89415 23.5013C9.52055 24.4975 9.46866 25.6183 9.49979 31.8554C9.53093 37.7915 9.53093 37.7915 9.76962 38.3934C10.081 39.1614 10.9734 40.1369 11.6895 40.4898C12.499 40.8841 13.6198 40.9879 16.4218 40.936C18.6323 40.8945 18.9332 40.8634 19.4625 40.6558C20.5522 40.2303 21.3201 39.4727 21.7768 38.3623C21.9324 37.9991 21.9843 37.5425 22.0155 36.2556L22.057 34.6263H25.7722H29.4875L29.529 36.3075C29.5601 37.8642 29.5809 38.0406 29.83 38.5699C30.4215 39.8152 31.5423 40.6558 32.8914 40.853C33.815 40.9775 37.6548 40.9879 38.5681 40.853C39.9483 40.6558 41.0484 39.836 41.6295 38.5906L41.9097 37.9991L41.9409 31.2639C41.9616 25.3174 41.9513 24.456 41.7956 23.9475C41.5258 23.0031 41.1418 22.3597 40.405 21.6436C39.7615 21.0106 39.6059 20.7511 38.3502 18.3227C36.7105 15.1264 36.3369 14.4622 35.8802 13.9018C35.4028 13.3206 34.4066 12.6668 33.5867 12.4177C32.9329 12.2206 32.632 12.2102 25.7826 12.2102L18.6634 12.2206L17.9681 12.4489ZM32.8603 15.4688C33.0471 15.5415 33.3169 15.7386 33.4622 15.9047C33.7216 16.1849 35.5689 19.5681 35.5066 19.6303C35.4859 19.6511 35.1226 19.5992 34.6972 19.5266C29.0931 18.551 22.607 18.4991 17.4388 19.3916C16.7643 19.5058 16.1935 19.5784 16.1727 19.5577C16.1001 19.485 17.9058 16.1953 18.1757 15.9047C18.7257 15.3132 18.5181 15.3339 25.8034 15.3235C31.2828 15.3235 32.5905 15.3547 32.8603 15.4688ZM30.5979 22.1106C34.033 22.4946 36.752 23.0343 37.7794 23.5324C38.0907 23.6881 38.3502 23.9164 38.5473 24.2277L38.8483 24.7051V27.3203C38.8483 28.9185 38.8068 30.06 38.7341 30.2365C38.5888 30.6308 38.153 31.0771 37.686 31.3158C37.3124 31.5026 36.9076 31.5129 25.7722 31.5129C16.3388 31.5129 14.1906 31.4922 13.9104 31.378C13.7236 31.295 13.4122 31.0459 13.1943 30.8176C12.6547 30.2053 12.5613 29.6553 12.6131 27.0609C12.6547 24.6636 12.7169 24.3938 13.4019 23.8334C14.3255 23.0758 17.9681 22.2974 22.3475 21.9238C23.4787 21.8304 29.228 21.955 30.5979 22.1106ZM16.2558 34.6055L18.9229 34.6367V35.9235C18.9229 37.1377 18.9125 37.2311 18.6738 37.5009L18.4247 37.7915H15.768C12.4263 37.7915 12.665 37.9264 12.6131 35.9235C12.5924 35.1452 12.5924 34.4499 12.6235 34.3772C12.6754 34.2527 12.7584 34.2631 13.132 34.398C13.4953 34.5433 14.0868 34.5744 16.2558 34.6055ZM38.7964 37.3038C38.6822 37.7604 38.236 37.8434 35.7453 37.8434C34.417 37.8434 33.348 37.8019 33.182 37.7396C32.6839 37.5425 32.632 37.3764 32.6216 35.9547V34.6367L35.2991 34.6055C37.3227 34.5744 38.0699 34.5329 38.3813 34.4187L38.7964 34.2631L38.8275 35.6641C38.8379 36.432 38.8275 37.1689 38.7964 37.3038Z" fill="#01A164"/>
<path d="M16.8475 25.4004C15.9654 25.7636 15.5814 26.7495 15.9965 27.5693C16.5051 28.576 17.9579 28.6901 18.6221 27.7665C18.9542 27.2995 18.9646 26.4693 18.6533 26.0542C18.1966 25.4419 17.4183 25.1617 16.8475 25.4004Z" fill="#01A164"/>
<path d="M23.0737 25.4003C21.8802 25.8881 21.6934 27.4552 22.752 28.1608C23.0944 28.3892 23.1775 28.3995 25.6889 28.3995C28.5532 28.3995 28.7815 28.358 29.207 27.7665C29.5391 27.2995 29.5495 26.4693 29.2381 26.0541C28.7089 25.3381 28.7089 25.3381 25.8965 25.3173C24.319 25.2966 23.2294 25.3381 23.0737 25.4003Z" fill="#01A164"/>
<path d="M33.659 25.4004C32.7769 25.7636 32.3929 26.7495 32.8081 27.5693C33.3166 28.576 34.7695 28.6901 35.4337 27.7665C35.7657 27.2995 35.7761 26.4693 35.4648 26.0542C35.0082 25.4419 34.2298 25.1617 33.659 25.4004Z" fill="#01A164"/>
<path d="M2.23458 32.3431C1.89211 32.5507 1.49775 33.2356 1.48737 33.63C1.477 34.263 2.61856 37.4179 3.45916 39.0887C5.4517 43.0531 8.85563 46.8098 12.5916 49.176C17.1475 52.061 22.9383 53.4724 28.2622 53.0054C37.0833 52.2374 44.7525 47.1004 48.7688 39.2651L49.516 37.8019L49.9207 38.6321C50.4188 39.6699 50.7924 39.9605 51.5708 39.8982C52.1519 39.8463 52.5359 39.618 52.8161 39.151C53.1689 38.5491 53.0755 38.1651 51.9755 35.5603C51.4151 34.2215 50.8651 32.9969 50.7509 32.8309C50.4915 32.4469 49.9933 32.2082 49.4848 32.2186C49.0386 32.229 43.9327 34.2942 43.5798 34.6055C43.0194 35.114 42.9364 36.2452 43.4242 36.7641C44.0261 37.4075 44.628 37.4802 45.7177 37.0132C46.1224 36.8367 46.4753 36.7226 46.496 36.7433C46.579 36.8264 45.396 39.0368 44.7837 39.9501C43.8393 41.3718 42.9883 42.3889 41.7326 43.6135C36.471 48.7505 29.0405 50.9713 21.8798 49.56C13.9823 47.9929 7.41311 42.2021 5.01584 34.6678C4.47619 32.9762 4.32052 32.6648 3.88465 32.3743C3.42803 32.0629 2.71196 32.0526 2.23458 32.3431Z" fill="#01A164"/>
</svg>
