<svg width="18" height="18" viewBox="0 0 18 18" fill="none" xmlns="http://www.w3.org/2000/svg">
<path d="M9 0C6.61305 0 4.32387 0.948212 2.63604 2.63604C0.948212 4.32387 0 6.61305 0 9C0 11.3869 0.948212 13.6761 2.63604 15.364C4.32387 17.0518 6.61305 18 9 18C11.3869 18 13.6761 17.0518 15.364 15.364C17.0518 13.6761 18 11.3869 18 9C18 6.61305 17.0518 4.32387 15.364 2.63604C13.6761 0.948212 11.3869 0 9 0ZM14.1311 12.2796L12.2786 14.1321L9 10.8525L5.72036 14.1311L3.86786 12.2786L7.14857 9L3.86893 5.72036L5.72143 3.86893L9 7.1475L12.2796 3.86786L14.1321 5.72036L10.8514 9L14.1311 12.2796Z" fill="#D50000"/>
</svg>
