<svg width="37" height="53" viewBox="0 0 37 53" fill="none" xmlns="http://www.w3.org/2000/svg">
<path d="M5.28571 34.45C5.28571 37.9641 6.67793 41.3343 9.15609 43.8192C11.6342 46.304 14.9954 47.7 18.5 47.7C22.0046 47.7 25.3658 46.304 27.8439 43.8192C30.3221 41.3343 31.7143 37.9641 31.7143 34.45C31.7143 29.8761 27.3271 21.1179 18.5 8.86955C9.67286 21.1179 5.28571 29.8761 5.28571 34.45ZM18.5 0C30.8342 16.1385 37 27.621 37 34.45C37 39.3698 35.0509 44.088 31.5815 47.5668C28.1121 51.0456 23.4065 53 18.5 53C13.5935 53 8.88795 51.0456 5.41852 47.5668C1.9491 44.088 7.31126e-08 39.3698 0 34.45C0 27.621 6.16579 16.1385 18.5 0Z" fill="#01A164"/>
</svg>
