<svg width="40" height="53" viewBox="0 0 40 53" fill="none" xmlns="http://www.w3.org/2000/svg">
<path d="M17.8988 44.9275V50.9594C17.8988 51.5006 18.1138 52.0196 18.4965 52.4023C18.8792 52.785 19.3982 53 19.9394 53C20.4806 53 20.9996 52.785 21.3823 52.4023C21.765 52.0196 21.98 51.5006 21.98 50.9594V44.9275C25.8156 44.5327 29.4545 43.0343 32.456 40.6137C35.4574 38.1932 37.6928 34.9544 38.8912 31.2895C40.0897 27.6246 40.1999 23.6908 39.2084 19.9646C38.217 16.2384 36.1665 12.8795 33.3052 10.2947L23.3594 1.31617C22.4218 0.469009 21.2031 0 19.9394 0C18.6758 0 17.4571 0.469009 16.5194 1.31617L6.57362 10.2947C3.71235 12.8795 1.66184 16.2384 0.670414 19.9646C-0.32101 23.6908 -0.210822 27.6246 0.987634 31.2895C2.18609 34.9544 4.4214 38.1932 7.42288 40.6137C10.4243 43.0343 14.0632 44.5327 17.8988 44.9275ZM30.5668 13.323C32.8154 15.3546 34.435 17.988 35.2336 20.9114C36.0322 23.8348 35.9765 26.9258 35.0731 29.8185C34.1697 32.7113 32.4564 35.2846 30.136 37.2339C27.8156 39.1833 24.9852 40.4269 21.98 40.8177V22.3954C21.98 21.8542 21.765 21.3351 21.3823 20.9525C20.9996 20.5698 20.4806 20.3548 19.9394 20.3548C19.3982 20.3548 18.8792 20.5698 18.4965 20.9525C18.1138 21.3351 17.8988 21.8542 17.8988 22.3954V40.8177C14.8933 40.4276 12.0625 39.1844 9.74151 37.2353C7.42056 35.2863 5.70669 32.713 4.80281 29.8201C3.89892 26.9273 3.84288 23.836 4.64131 20.9123C5.43975 17.9886 7.05922 15.3549 9.308 13.323L19.2538 4.3444C19.4415 4.17405 19.6859 4.07968 19.9394 4.07968C20.1929 4.07968 20.4373 4.17405 20.6251 4.3444L30.5708 13.323H30.5668Z" fill="#01A164"/>
</svg>
