<svg width="53" height="54" viewBox="0 0 53 54" fill="none" xmlns="http://www.w3.org/2000/svg">
<path d="M21.6461 0.189764C21.0872 0.479551 21.0354 0.665842 20.7043 3.62581C20.5283 5.15754 20.3627 6.44089 20.3213 6.48229C20.2696 6.52368 19.8866 6.67893 19.4623 6.82382C19.038 6.97906 18.2307 7.31025 17.6718 7.56899C16.9888 7.90017 16.6265 8.01402 16.5334 7.94157C16.4713 7.88982 15.4363 7.07221 14.2461 6.12005C12.3522 4.61937 12.0313 4.40203 11.7105 4.40203C11.5035 4.40203 11.2137 4.47447 11.0792 4.56762C10.7066 4.81601 5.004 10.4876 4.65212 10.9636C4.27954 11.4604 4.26919 11.9054 4.61072 12.4126C4.74526 12.6092 5.51113 13.5924 6.2977 14.5756C7.09461 15.5588 7.79838 16.4592 7.87083 16.5731C7.98467 16.749 7.94327 16.8836 7.61209 17.5459C7.39475 17.9703 7.06356 18.7568 6.86692 19.3054C6.67028 19.8435 6.47364 20.3196 6.43224 20.3714C6.39084 20.4128 5.1075 20.5784 3.57577 20.7543C0.615798 21.0855 0.429506 21.1372 0.139719 21.6961C-0.0465729 22.0583 -0.0465729 31.0417 0.139719 31.404C0.429506 31.9629 0.615798 32.0146 3.57577 32.3458C5.1075 32.5217 6.39084 32.6873 6.43224 32.7287C6.47364 32.7805 6.62888 33.1634 6.77377 33.5877C6.92902 34.0121 7.2602 34.8193 7.51894 35.3782C7.85013 36.0613 7.96397 36.4235 7.89152 36.5167C7.83978 36.5788 7.02216 37.6137 6.07001 38.8039C4.56932 40.6979 4.35198 41.0187 4.35198 41.3395C4.35198 41.5465 4.42443 41.8363 4.51757 41.9709C4.76596 42.3434 10.4375 48.046 10.9136 48.3979C11.4104 48.7705 11.8554 48.7809 12.3625 48.4393C12.5592 48.3048 13.5424 47.5389 14.5256 46.7524C15.5088 45.9554 16.4092 45.2517 16.523 45.1792C16.699 45.0654 16.8335 45.1068 17.4959 45.438C17.9202 45.6553 18.7068 45.9865 19.2553 46.1831C19.7935 46.3798 20.2696 46.5764 20.3213 46.6178C20.3627 46.6592 20.5283 47.9425 20.7043 49.4743C21.0354 52.4343 21.0872 52.6205 21.6461 52.9103C22.0083 53.0966 30.9917 53.0966 31.3539 52.9103C31.9232 52.6205 31.9749 52.4343 32.2957 49.4743C32.4717 47.9425 32.6373 46.6592 32.6787 46.6178C32.7304 46.5764 33.1134 46.4212 33.5377 46.2763C33.962 46.121 34.7693 45.7898 35.3282 45.5311C36.0112 45.1999 36.3735 45.0861 36.4666 45.1585C36.5287 45.2103 37.5637 46.0279 38.7539 46.98C41.1239 48.8637 41.2688 48.9258 41.9726 48.4911C42.1589 48.3772 43.732 46.8144 45.4811 45.0343C48.3893 42.0433 48.648 41.7535 48.648 41.4223C48.648 40.9877 48.5135 40.7807 46.7023 38.5245C45.9054 37.5413 45.2016 36.6409 45.1292 36.527C45.0153 36.3511 45.0567 36.2165 45.3879 35.5541C45.6053 35.1298 45.9364 34.3433 46.1331 33.7947C46.3297 33.2565 46.5264 32.7805 46.5678 32.7287C46.6092 32.6873 47.8925 32.5217 49.4242 32.3458C52.3842 32.0146 52.5705 31.9629 52.8603 31.404C53.0466 31.0417 53.0466 22.0583 52.8603 21.6961C52.5705 21.1269 52.3842 21.0751 49.4242 20.7543C47.8925 20.5784 46.6092 20.4128 46.5678 20.3714C46.5264 20.3196 46.3711 19.9367 46.2262 19.5124C46.071 19.088 45.7398 18.2808 45.4811 17.7219C45.1499 17.0388 45.036 16.6766 45.1085 16.5834C45.1602 16.5213 45.9778 15.4864 46.93 14.2962C48.8136 11.9261 48.8757 11.7813 48.441 11.0775C48.3272 10.8912 46.7644 9.31806 44.9843 7.56899C41.9933 4.66077 41.7035 4.40203 41.3723 4.40203C40.9376 4.40203 40.7306 4.53657 38.4744 6.34774C37.4912 7.14466 36.5908 7.84842 36.477 7.92087C36.301 8.03472 36.1665 7.99332 35.5041 7.66213C35.0798 7.44479 34.2932 7.11361 33.7447 6.91697C33.2065 6.72032 32.7304 6.52368 32.6787 6.48229C32.6373 6.44089 32.4717 5.15754 32.2957 3.62581C31.9646 0.665842 31.9128 0.479551 31.3539 0.189764C31.1676 0.0862681 29.9567 0.0552195 26.5 0.0552195C23.0433 0.0552195 21.8324 0.0862681 21.6461 0.189764ZM29.9671 2.6633C29.9981 2.91169 30.143 4.15364 30.2776 5.42663C30.4846 7.2378 30.5777 7.79668 30.733 8.01402C30.8882 8.22101 31.2194 8.3866 32.2543 8.72814C32.9892 8.97652 34.1483 9.44225 34.8314 9.77344C36.3528 10.5083 36.4459 10.5393 36.7874 10.4048C36.9323 10.353 37.9983 9.5561 39.1368 8.63499L41.217 6.96871L43.6492 9.40086L46.0813 11.833L44.4151 13.9133C43.4939 15.0517 42.697 16.1177 42.6453 16.2626C42.5107 16.6145 42.5418 16.718 43.2766 18.2187C43.6078 18.9017 44.0735 20.0609 44.3219 20.7854C44.6634 21.8307 44.829 22.1618 45.036 22.3171C45.2534 22.4723 45.8122 22.5655 47.6234 22.7725C48.8964 22.907 50.1384 23.0519 50.3867 23.083L50.8214 23.145V26.55V29.955L50.3867 30.0171C50.1384 30.0482 48.9068 30.1931 47.6338 30.3276C46.0917 30.5036 45.2534 30.6381 45.0878 30.752C44.8187 30.9176 44.6945 31.1763 44.2495 32.5528C44.0942 33.0392 43.6388 34.1156 43.2456 34.9539C42.6039 36.32 42.5314 36.5167 42.6246 36.7857C42.6867 36.9617 43.4836 38.038 44.4151 39.1868L46.0813 41.2671L43.6595 43.6992L41.2377 46.121L39.1368 44.4444C37.9776 43.5336 36.8909 42.7264 36.7253 42.6746C36.4666 42.5815 36.2596 42.6539 35.0073 43.2439C34.2311 43.6164 33.0513 44.1029 32.3992 44.3306C30.7951 44.8894 30.8572 44.8584 30.6916 45.1896C30.5984 45.3552 30.4328 46.4626 30.2776 47.8391C30.1327 49.1327 29.9878 50.354 29.9567 50.5299L29.905 50.8715H26.5H23.095L23.0329 50.4264C23.0019 50.1884 22.857 48.9465 22.7224 47.6735C22.5154 45.8623 22.4223 45.3034 22.267 45.0861C22.1118 44.8791 21.7806 44.7135 20.7353 44.372C20.0108 44.1236 18.8517 43.6578 18.1686 43.3267C16.6679 42.5918 16.5644 42.5608 16.2126 42.6953C16.0677 42.7471 15.0017 43.544 13.8632 44.4651L11.783 46.1314L9.35081 43.6992L6.91867 41.2671L8.58494 39.1868C9.5164 38.038 10.3133 36.9617 10.3754 36.7857C10.4686 36.5167 10.4065 36.3304 9.80619 35.0574C9.43361 34.2812 8.94718 33.1013 8.71949 32.4493C8.16061 30.8451 8.19166 30.9072 7.86048 30.7416C7.69488 30.6485 6.58748 30.4829 5.21099 30.3276C3.9173 30.1827 2.69606 30.0378 2.52011 30.0068L2.17858 29.955V26.55V23.145L2.62361 23.083C2.86165 23.0519 4.10359 22.907 5.37659 22.7725C7.18776 22.5655 7.74663 22.4723 7.96397 22.3171C8.17096 22.1618 8.33656 21.8307 8.67809 20.7854C8.92648 20.0609 9.39221 18.9017 9.72339 18.2187C10.4582 16.718 10.4893 16.6145 10.3547 16.2626C10.303 16.1177 9.50605 15.0517 8.58494 13.9133L6.91867 11.833L9.35081 9.40086L11.783 6.96871L13.8632 8.63499C15.0017 9.5561 16.0677 10.353 16.2126 10.4048C16.5644 10.5393 16.6679 10.5083 18.1686 9.77344C18.8517 9.44225 20.0108 8.97652 20.7353 8.72814C21.7806 8.3866 22.1118 8.22101 22.267 8.01402C22.4223 7.79668 22.5154 7.2378 22.7224 5.42663C22.857 4.15364 23.0019 2.91169 23.0329 2.6633L23.095 2.22862H26.5H29.905L29.9671 2.6633Z" fill="#01A164"/>
<path d="M24.1197 11.2845C21.0872 11.802 18.4688 13.0543 16.2023 15.0517C13.7701 17.2148 12.0831 20.1437 11.338 23.5487C11.1103 24.6043 11.0171 27.4194 11.1724 28.5268C11.4208 30.2448 11.8348 31.6213 12.611 33.298C13.0871 34.3122 13.4079 34.6227 14.0185 34.6227C14.4325 34.6227 14.4842 34.5813 18.1997 30.8658C21.76 27.3263 21.967 27.1296 22.1118 27.3263C22.1946 27.4401 22.8053 28.2577 23.4676 29.1374C24.751 30.8244 25.0097 31.0314 25.6617 30.9176C25.848 30.8865 27.0589 29.7481 29.5325 27.2952L33.1238 23.7143V25.7014V27.6885H34.2105H35.2972V24.1697V20.6508L34.997 20.3196L34.6969 19.9781L31.1677 19.947L27.6385 19.916V21.013V22.0998H29.5532C30.6088 22.0998 31.4678 22.1308 31.4678 22.1825C31.4678 22.2757 25.641 28.1025 25.5479 28.1025C25.5065 28.1025 24.9166 27.3677 24.2335 26.4569C23.5504 25.5565 22.8674 24.7182 22.7121 24.594C22.5362 24.4594 22.2878 24.3767 22.0187 24.3767C21.6047 24.3767 21.5426 24.4284 17.9513 28.0093C14.774 31.1866 14.2979 31.6213 14.2048 31.4557C13.9668 30.99 13.5631 29.4997 13.4182 28.4958C12.5489 22.6586 15.6951 16.9043 21.0665 14.5239C26.1275 12.278 31.9129 13.344 35.8146 17.2355C37.5844 19.0156 38.7022 21.0234 39.3645 23.6522C39.6647 24.8527 39.6957 28.03 39.4059 29.2927C38.9816 31.1659 38.195 32.915 37.1187 34.364C36.4563 35.254 35.5352 36.2786 35.3903 36.2786C35.3386 36.2786 35.2972 34.8297 35.2972 33.0703V29.8619H34.2105H33.1238V33.9189V37.9863L32.5752 38.2657C32.0578 38.5348 31.0849 38.9695 30.9918 38.9695C30.9711 38.9695 30.94 37.4171 30.9297 35.5335L30.8986 32.0871H29.8119H28.7252L28.6942 35.8232L28.6735 39.5698L28.4354 39.6215C28.3112 39.6526 27.8248 39.7147 27.3591 39.7561L26.5001 39.8285V37.5827V35.3472H25.4134H24.3267V37.4688C24.3267 38.6383 24.2956 39.5905 24.2542 39.5905C24.0576 39.5905 22.4327 39.1661 22.2464 39.073C22.0601 38.9695 22.0498 38.8246 22.0498 36.0716V33.1738H20.9631H19.8763L19.8557 35.6059L19.8246 38.0277L18.9552 37.4067C18.4792 37.0652 18.0755 36.7961 18.0652 36.8168C17.765 37.148 16.7715 38.421 16.7715 38.4831C16.7715 38.5969 17.8892 39.3938 18.8103 39.932C20.1661 40.7289 21.8117 41.3499 23.6022 41.7328C24.8441 41.9916 28.1456 42.0019 29.3979 41.7328C32.2337 41.1326 34.7383 39.8803 36.8185 38.0173C40.0683 35.0988 41.9209 30.9279 41.9209 26.5708C41.9105 24.0144 41.4344 21.9756 40.2856 19.6676C38.0915 15.2277 33.9724 12.1849 29.015 11.3362C27.6282 11.0982 25.3409 11.0775 24.1197 11.2845Z" fill="#01A164"/>
</svg>
