<svg width="198" height="360" viewBox="0 0 198 360" fill="none" xmlns="http://www.w3.org/2000/svg">
<path d="M194.851 200.365C188.224 168.817 171.913 142.54 151.132 125.94C132.557 111.1 120.249 89.7009 117.261 66.1392C116.947 63.6613 116.529 61.1665 116.003 58.6615C108.032 20.7207 78.3231 -5.15289 49.6453 0.870575C20.9678 6.89407 4.18133 42.5367 12.1519 80.481C13.7816 88.2366 16.3215 95.4906 19.5753 102.067C29.9596 123.059 32.4246 147.206 25.5795 169.612C19.4621 189.636 18.2553 212.767 23.224 236.419C30.6345 271.694 50.1531 300.384 74.487 316.319C83.6914 322.346 91.7677 330.01 98.1976 338.925C108.883 353.741 125.221 361.873 141.321 358.49C158.69 354.843 170.92 338.816 173.679 318.936C175.242 307.685 178.997 296.889 184.36 286.866C197.02 263.209 201.552 232.262 194.851 200.365Z" fill="#01D285"/>
<path d="M68.1666 39.1233C77.1805 63.4138 85.4073 87.9722 93.3768 112.615C95.372 118.778 97.2678 124.971 99.1837 131.154L102.056 140.433L104.851 149.735C106.69 155.944 108.614 162.128 110.383 168.358L115.691 187.047C119.07 199.551 122.556 212.027 125.702 224.593C127.284 230.874 128.989 237.123 130.443 243.437L134.893 262.352C140.571 287.632 145.617 313.065 149.366 338.705L148.263 338.877L144.728 319.8L143.854 315.031L142.862 310.285L140.86 300.794L138.875 291.3C138.22 288.137 137.447 284.995 136.738 281.839C135.279 275.541 133.869 269.233 132.369 262.941C126.205 237.823 119.707 212.786 112.694 187.886C109.092 175.463 105.597 163.009 101.909 150.611L99.1687 141.304L96.3499 132.021C94.4747 125.832 92.5988 119.639 90.6613 113.469C86.8903 101.094 83.0314 88.745 79.0709 76.4268C75.1755 64.0883 71.1631 51.7838 67.1138 39.4995L68.1666 39.1233Z" fill="#07DF8D"/>
<path d="M35.0715 109.343C35.0132 109.343 34.9552 109.337 34.8983 109.326C34.6312 109.276 34.3878 109.11 34.2468 108.855C17.3363 78.1684 20.0599 55.0846 25.3224 41.1258C31.0398 25.9569 40.6445 18.1945 41.0506 17.8691C41.2235 17.7336 41.4299 17.6658 41.635 17.6658C41.9116 17.6658 42.1855 17.7878 42.3716 18.0217C42.6953 18.425 42.6285 19.0182 42.2224 19.3437C42.1265 19.4182 32.5669 27.1637 27.0478 41.8818C21.9565 55.4575 19.3576 77.9413 35.8942 107.947C36.145 108.401 35.9796 108.974 35.5247 109.225C35.381 109.303 35.2251 109.343 35.0715 109.343Z" fill="#07DF8D"/>
<path d="M130.804 261.69C120.04 247.114 105.571 237.49 91.0884 233.85C78.1418 230.597 66.8565 222.531 59.8181 211.188C59.0782 209.996 58.2809 208.818 57.4264 207.662C44.4818 190.133 23.2738 183.835 10.0578 193.595C-3.15832 203.355 -3.37831 225.477 9.5666 243.006C12.2136 246.592 15.2057 249.704 18.4046 252.307C28.6136 260.612 35.5225 272.374 37.2753 285.417C38.8417 297.075 43.6395 309.176 51.709 320.101C63.7444 336.398 80.4133 346.51 96.5533 348.981C102.658 349.917 108.571 351.947 113.937 355.008C122.854 360.086 133.09 360.435 140.51 354.954C148.514 349.042 151.001 338.005 147.756 327.206C145.92 321.094 145.309 314.701 145.698 308.332C146.617 293.295 141.686 276.425 130.804 261.69Z" fill="#01A164"/>
<path d="M28.4566 208.825C38.7383 219.134 48.6816 229.766 58.5141 240.501C60.9733 243.182 63.3891 245.904 65.8141 248.619L69.4506 252.69L73.0528 256.791C75.4439 259.537 77.873 262.246 80.2332 265.018L87.3139 273.33C91.9639 278.933 96.661 284.492 101.207 290.18C103.484 293.021 105.816 295.817 108.035 298.705L114.731 307.332C123.544 318.925 132.069 330.744 139.982 342.971L139.46 343.317L133.192 334.392L131.63 332.158L130.013 329.965L126.771 325.582L123.538 321.196C122.462 319.731 121.333 318.304 120.233 316.86C118.015 313.982 115.819 311.084 113.582 308.223C104.56 296.824 95.3862 285.546 85.9818 274.459C81.2372 268.95 76.5405 263.401 71.7576 257.924L68.1815 253.809L64.5715 249.721C62.1661 246.995 59.7608 244.27 57.3284 241.568C52.5092 236.124 47.6505 230.714 42.7479 225.343C37.8736 219.947 32.9477 214.595 28.0068 209.261L28.4566 208.825Z" fill="#03BD7A"/>
<path d="M29.1948 249.348C13.4568 238.139 8.86473 225.852 7.82952 217.357C6.65465 207.718 9.59895 200.93 9.7247 200.646C9.81758 200.435 10.0237 200.311 10.2399 200.311C10.3162 200.311 10.3938 200.326 10.4681 200.359C10.7525 200.484 10.8809 200.817 10.7555 201.102C10.726 201.169 7.80105 207.935 8.95591 217.281C9.98604 225.619 14.5665 237.732 30.3442 248.778C29.9429 248.965 29.5609 249.154 29.1948 249.348Z" fill="#03BD7A"/>
</svg>
