<svg width="146" height="281" viewBox="0 0 146 281" fill="none" xmlns="http://www.w3.org/2000/svg">
<path d="M128.236 220.257C128.923 226.793 124.137 229.795 123.107 236.286C122.438 240.497 122.354 242.923 122.465 247.186C122.58 251.595 122.362 254.22 123.748 258.407C127.255 269.002 145.469 276.98 145.469 276.98L142.663 119.591C142.663 119.591 128.455 105.222 125.671 90.7379C122.888 76.2534 122.514 61.8809 124.71 51.9464C126.905 42.012 123.427 26.9404 123.427 26.9404C123.427 26.9404 106.366 -0.622852 89.4446 0.0107588C69.5725 0.754877 60.5385 15.881 58.0267 40.0846L57.0649 65.4112C63.293 87.9459 89.4446 126.323 89.4446 126.323C89.4446 126.323 93.4268 138.027 91.6887 146.2C89.9507 154.373 87.6265 156.633 88.1622 163.512C88.9452 173.564 91.0554 178.664 100.345 186.274C109.634 193.884 117.643 198.064 123.748 209.356C125.937 213.406 127.755 215.678 128.236 220.257Z" fill="#FFB13C"/>
<path d="M97.7802 2.896C91.0099 28.5997 90.9056 42.8101 96.1773 69.5788M96.1773 69.5788L123.427 27.2609M96.1773 69.5788C97.2274 74.9111 99.7036 84.0341 102.996 95.2261M142.663 218.653C142.663 218.653 138.54 206.417 132.735 188.839M58.0269 40.4051C75.6593 65.4112 102.996 95.2261 102.996 95.2261M102.996 95.2261C111.005 122.449 123.843 161.912 132.735 188.839M132.735 188.839C118.72 171.915 108.966 166.359 88.1624 163.512" stroke="white"/>
<path d="M102.513 279.711C113.632 277.231 132.597 271.176 134.252 272.658C126.552 265.535 124.092 260.563 123.352 249.575C123.352 249.575 120.788 247.972 126.878 229.699C132.969 211.425 106.911 189.168 99.9482 186.74C99.9482 186.74 90.3312 178.035 88.4069 165.581C86.4827 153.126 80.4847 144.343 72.0574 132.88C61.8973 119.061 59.8744 113.004 38.3954 104.668C16.9164 96.3332 -2.41004 114.542 0.24509 132.88C2.07209 145.499 12.8808 151.943 14.6717 165.901C15.4843 172.234 15.6419 175.939 14.6717 182.251C13.7733 193.467 15.8709 199.342 23.6482 209.181C32.7485 217.764 39.7835 220.624 54.4249 223.607C62.0889 225.343 69.1721 231.943 69.4921 236.431C69.8121 240.919 66.3028 260.794 67.8897 267.208C69.4766 273.622 72.1081 276.399 80.3927 279.711C80.3927 279.711 94.0819 281.591 102.513 279.711Z" fill="#01A164"/>
<path d="M12.7476 107.233C20.8654 126.909 28.1164 141.814 36.8966 155.642M72.0568 199.563C90.6203 218.444 101.823 227.107 123.672 238.034M72.0568 199.563C56.8651 183.303 46.0499 170.058 36.8966 155.642M72.0568 199.563C72.0568 199.563 51.7758 193.885 41.9213 194.754C32.0668 195.623 26.5209 196.313 16.5946 197.96M38.7154 104.989C35.8133 114.707 35.0226 120.263 34.8683 130.316C34.8643 140.551 35.3416 146.073 36.8966 155.642M69.8127 270.414C69.8127 270.414 85.2821 260.948 96.1011 256.949C106.497 253.106 123.672 250.216 123.672 250.216" stroke="white"/>
</svg>
