<svg width="98" height="90" viewBox="0 0 98 90" fill="none" xmlns="http://www.w3.org/2000/svg">
<path d="M86.6646 10.167H93.6645C95.4578 10.6678 96.0404 11.399 95.9978 13.6669V85.8692C95.1746 87.795 94.1724 88.353 91.3312 88.3318H32.8532C30.0699 88.4318 29.0338 87.9692 28.3325 85.9985V82.4986" stroke="#107551" stroke-width="3"/>
<path d="M52.832 45.1658H77.3315" stroke="#107551" stroke-width="3"/>
<path d="M50.499 56.8323H77.3317" stroke="#107551" stroke-width="3"/>
<path d="M43 69H76.8325" stroke="#107551" stroke-width="3"/>
<path d="M63 21H76.9997" stroke="#107551" stroke-width="3"/>
<path d="M51 34H76.6661" stroke="#107551" stroke-width="3"/>
<path d="M58 11H76.6662" stroke="#107551" stroke-width="3"/>
<path d="M28.3325 3.1665V13.6663C29.7316 15.5498 30.7664 16.0171 32.9991 15.9995C35.3204 15.9545 36.3584 15.4106 37.6656 13.6663V7.83306" stroke="#107551" stroke-width="3"/>
<path d="M17.2657 21.2501V4.91719C17.3445 2.63937 17.9835 1.97733 20.1823 2.00059H80.8475C83.7773 1.98906 84.495 2.92957 84.3475 6.08383V77.2488C84.4364 80.0603 83.5151 80.8915 79.6809 80.7487H20.1823C17.3192 80.781 16.5407 80.0307 16.6824 77.2488V70.249" stroke="#107551" stroke-width="3"/>
<path d="M21.5 24C9.62701 24 0 33.627 0 45.5C0 57.373 9.62701 67 21.5 67C33.373 67 43 57.373 43 45.5C43 33.627 33.373 24 21.5 24ZM22.5702 55.9237L22.5798 57.445C22.5798 57.6561 22.407 57.8337 22.1959 57.8337H20.8329C20.6218 57.8337 20.449 57.6609 20.449 57.4498V55.9429C16.1874 55.6261 14.1814 53.1978 13.9654 50.5583C13.9462 50.3327 14.1238 50.1407 14.3493 50.1407H16.5665C16.7537 50.1407 16.9169 50.2751 16.9456 50.4575C17.1904 51.9788 18.3758 53.1162 20.5018 53.3993V46.551L19.3164 46.2487C16.8065 45.6488 14.4165 44.0843 14.4165 40.8401C14.4165 37.3415 17.0752 35.4603 20.473 35.1291V33.5454C20.473 33.3343 20.6458 33.1615 20.8569 33.1615H22.2055C22.4166 33.1615 22.5894 33.3343 22.5894 33.5454V35.1147C25.8768 35.4459 28.3435 37.3655 28.6315 40.3554C28.6555 40.5809 28.4779 40.7777 28.2475 40.7777H26.0927C25.9008 40.7777 25.7376 40.6337 25.7136 40.4465C25.5217 39.0452 24.3987 37.903 22.5702 37.6535V44.0987L23.7892 44.3818C26.899 45.1497 29.0154 46.6374 29.0154 49.968C29.0154 53.5817 26.3279 55.5973 22.5702 55.9237ZM17.4016 40.6193C17.4016 41.8383 18.155 42.7837 19.7771 43.3692C20.0027 43.4604 20.2282 43.5324 20.497 43.6092V37.6583C18.7261 37.8838 17.4016 38.8772 17.4016 40.6193ZM22.9925 47.1077C22.8581 47.0789 22.7238 47.0453 22.5702 47.0021V53.4185C24.6146 53.2362 26.0256 52.1132 26.0256 50.2319C26.0256 48.7586 25.2625 47.7988 22.9925 47.1077Z" fill="#FFB13C"/>
</svg>
