<svg width="53" height="53" viewBox="0 0 53 53" fill="none" xmlns="http://www.w3.org/2000/svg">
<path d="M26.5 26.5C30.0141 26.5 33.3843 25.104 35.8692 22.6192C38.354 20.1343 39.75 16.7641 39.75 13.25C39.75 9.73588 38.354 6.36569 35.8692 3.88084C33.3843 1.39598 30.0141 0 26.5 0C22.9859 0 19.6157 1.39598 17.1308 3.88084C14.646 6.36569 13.25 9.73588 13.25 13.25C13.25 16.7641 14.646 20.1343 17.1308 22.6192C19.6157 25.104 22.9859 26.5 26.5 26.5V26.5ZM35.3333 13.25C35.3333 15.5927 34.4027 17.8395 32.7461 19.4961C31.0895 21.1527 28.8427 22.0833 26.5 22.0833C24.1573 22.0833 21.9105 21.1527 20.2539 19.4961C18.5973 17.8395 17.6667 15.5927 17.6667 13.25C17.6667 10.9073 18.5973 8.66046 20.2539 7.00389C21.9105 5.34732 24.1573 4.41667 26.5 4.41667C28.8427 4.41667 31.0895 5.34732 32.7461 7.00389C34.4027 8.66046 35.3333 10.9073 35.3333 13.25V13.25ZM53 48.5833C53 53 48.5833 53 48.5833 53H4.41667C4.41667 53 0 53 0 48.5833C0 44.1667 4.41667 30.9167 26.5 30.9167C48.5833 30.9167 53 44.1667 53 48.5833ZM48.5833 48.5657C48.5789 47.4792 47.9032 44.2108 44.9087 41.2163C42.029 38.3367 36.6097 35.3333 26.5 35.3333C16.3858 35.3333 10.971 38.3367 8.09133 41.2163C5.09683 44.2108 4.4255 47.4792 4.41667 48.5657H48.5833Z" fill="#01A164"/>
</svg>
