<svg width="91" height="158" viewBox="0 0 91 158" fill="none" xmlns="http://www.w3.org/2000/svg">
<path d="M17 45.8779C12.5335 41.1348 19.5 24.3779 17 19.3779C14.5 14.3779 13.3052 14.6076 10 12.8779C6.47139 11.0314 0 10.8779 0 10.8779V157.378C0 157.378 24.7676 158.618 35 157.378C45.2324 156.138 49.5 143.878 49.5 143.878C49.5 143.878 76.4345 126.911 87.5 110.378C87.5 110.378 89.4265 107.802 89.5 105.881C89.5804 103.779 87.5 100.878 87.5 100.878C87.5 100.878 76.3802 97.0763 66 100.878C55.6198 104.68 49.5159 119.947 49.5 114.378C49.4841 108.809 43 102.878 43 102.878C43 102.878 53.2584 89.0347 63 87.378C66.465 86.7887 68.5118 87.8092 72 87.378C75.8073 86.9073 82 85.3814 82 85.3814C82 85.3814 90.3647 76.2527 91 66.8813C87.0696 54.7316 80.4868 51.6381 71 51.8779C59.5031 52.1686 58.2362 60.5795 52 74.378C52 74.378 45 80.2358 45 74.378V59.3779C45 53.5201 68.4973 40.1988 71 22.878C71.7818 17.4668 72.9816 13.9735 71 8.87795C65.9044 -4.22499 36 -1.62233 35 8.87795C34 19.3782 33.487 22.5988 35 31.378C33.1499 37.7215 31.9384 40.8614 29.5 45.8779C24.2017 50.3556 21.4666 50.621 17 45.8779Z" fill="#01A164"/>
<path d="M3.5 87.057C5.16537 79.2655 15.5 70.557 15.5 70.557C15.5 70.557 17.6591 63.812 16 60.0571C14.6607 57.0261 10 54.057 10 54.057C10 54.057 7.26655 52.7104 5.5 53.057C3.58391 53.433 1.5 56.057 1.5 56.057L0 157.557H41.5C41.5 157.557 52.8864 150.254 50.5 145.557C48.1136 140.86 41.5 141.057 41.5 141.057C41.5 141.057 34.2596 145.025 28 145.557C22.0443 146.504 19.5188 145.061 18 141.057C16.0413 135.893 23.15 133.699 28 131.057C32.7427 128.474 37.1268 131.226 41.5 128.057C45.7574 124.972 48.5 116.557 48.5 116.557C50.5295 109.706 49.11 107.653 41.5 107.557C35.3467 109.499 32.4012 111.535 28 116.557C23.5988 121.58 20.0092 119.906 18 116.557C16.7945 114.548 18 110.557 18 110.557C19.6408 104.252 21.8979 101.904 28 99.557C36.3046 96.6391 38.9588 93.4001 39.5 84.057C39.2018 78.0173 37.5721 76.3275 31 77.557C23.3814 79.8007 19.8401 83.2112 15.5 92.557C10.4848 99.5702 3.5 97.557 3.5 97.557C3.5 97.557 2.64292 91.067 3.5 87.057Z" fill="#FFB13C"/>
<path d="M47.5 26.5C42.3315 45.3812 38.4185 55.4668 29.5 72.5" stroke="white"/>
<path d="M74.9799 109.481C60.4476 122.596 51.7146 128.981 35.0202 138.519" stroke="white"/>
</svg>
