<svg width="208" height="298" viewBox="0 0 208 298" fill="none" xmlns="http://www.w3.org/2000/svg">
<path d="M2.54751 165.43C8.01847 139.383 21.4857 117.687 38.6444 103.982C53.9794 91.7304 64.1417 74.0623 66.6094 54.6088C66.867 52.5614 67.2127 50.5039 67.6466 48.4362C74.2294 17.1086 98.7572 -4.25659 122.434 0.719482C146.115 5.69217 159.972 35.1215 153.392 66.4456C152.047 72.8522 149.948 78.8404 147.264 84.2707C138.688 101.602 136.654 121.54 142.305 140.039C147.355 156.572 148.352 175.67 144.25 195.196C138.132 224.324 122.017 248.011 101.927 261.167C94.3269 266.143 87.6593 272.468 82.3477 279.83C73.5277 292.067 60.0368 298.779 46.7424 295.986C32.404 292.972 22.306 279.742 20.0282 263.329C18.7367 254.038 15.6351 245.123 11.2082 236.849C0.757747 217.318 -2.98448 191.766 2.54751 165.43Z" fill="#01D285"/>
<path d="M107.143 32.3014C99.6991 52.3582 92.9096 72.632 86.3268 92.9817C84.6828 98.0676 83.1168 103.18 81.5338 108.287L79.1644 115.948L76.856 123.628C75.3374 128.754 73.7477 133.86 72.2867 139.004L67.9038 154.434C65.1141 164.758 62.2363 175.059 59.6398 185.435C58.3347 190.62 56.9246 195.78 55.7247 200.993L52.0502 216.609C47.3623 237.48 43.1964 258.482 40.1016 279.651L41.0134 279.793L43.9319 264.041L44.6505 260.102L45.4709 256.184L47.125 248.347L48.7622 240.51C49.3046 237.897 49.9418 235.303 50.5283 232.7C51.7316 227.5 52.8977 222.29 54.1349 217.097C59.2228 196.356 64.5887 175.685 70.3783 155.127C73.3544 144.87 76.2391 134.588 79.2831 124.351L81.5473 116.667L83.8727 109.002C85.4217 103.891 86.9709 98.7801 88.5708 93.6847C91.6826 83.4672 94.8688 73.2693 98.1399 63.1002C101.357 52.9141 104.668 42.7552 108.011 32.6099L107.143 32.3014Z" fill="#07DF8D"/>
<path d="M134.609 90.2638C134.83 90.2228 135.033 90.0869 135.148 89.8754C149.111 64.5401 146.863 45.4799 142.518 33.9549C137.796 21.43 129.867 15.02 129.532 14.7556C129.196 14.4879 128.708 14.5421 128.44 14.8777C128.172 15.2132 128.23 15.7014 128.566 15.9691C128.644 16.0336 136.535 22.4265 141.094 34.5786C145.297 45.7883 147.443 64.3503 133.789 89.1252C133.582 89.5011 133.718 89.9737 134.094 90.1804C134.257 90.2709 134.44 90.2957 134.609 90.2638Z" fill="#07DF8D"/>
<path d="M84.3084 205.621C94.4707 191.862 108.131 182.775 121.802 179.34C134.025 176.269 144.679 168.655 151.323 157.946C152.021 156.821 152.773 155.709 153.58 154.617C165.8 138.069 185.82 132.124 198.297 141.337C210.774 150.551 210.981 171.436 198.761 187.981C196.263 191.367 193.436 194.306 190.416 196.764C180.779 204.604 174.257 215.709 172.603 228.02C171.125 239.026 166.597 250.446 158.977 260.765C147.614 276.147 131.879 285.692 116.643 288.025C110.88 288.909 105.297 290.828 100.233 293.716C91.8131 298.512 82.1525 298.838 75.146 293.665C67.5904 288.086 65.2414 277.666 68.3057 267.469C70.0412 261.7 70.6174 255.667 70.2479 249.653C69.3802 235.457 74.0376 219.532 84.3084 205.621Z" fill="#01A164"/>
<path d="M180.928 155.715C171.224 165.448 161.834 175.484 152.553 185.618C150.231 188.151 147.95 190.72 145.662 193.283L142.228 197.127L138.828 200.998C136.571 203.587 134.279 206.146 132.049 208.763L125.365 216.61C120.975 221.898 116.541 227.149 112.25 232.518C110.101 235.2 107.901 237.84 105.806 240.565L99.4808 248.708C91.1625 259.653 83.1154 270.812 75.6445 282.354L76.1394 282.679L82.0544 274.256L83.5289 272.147L85.0577 270.076L88.1186 265.937L91.1693 261.795C92.1829 260.412 93.2506 259.07 94.2879 257.704C96.3827 254.985 98.4571 252.253 100.569 249.548C109.084 238.789 117.744 228.142 126.622 217.675C131.103 212.475 135.537 207.235 140.052 202.065L143.428 198.181L146.835 194.323C149.106 191.75 151.377 189.178 153.672 186.626C158.221 181.486 162.811 176.379 167.437 171.309C172.037 166.214 176.688 161.162 181.352 156.126L180.928 155.715Z" fill="#03BD7A"/>
</svg>
